<svg width="282" height="143" viewBox="0 0 282 143" fill="none" xmlns="http://www.w3.org/2000/svg">
<path d="M15.5309 94.0532C16.4136 93.512 17.3032 93.2349 18.1995 93.2218C19.0797 93.1993 19.9378 93.4346 20.7738 93.9278C21.6902 94.4685 22.3821 95.1692 22.8495 96.0301C23.3103 96.8655 23.5079 97.8164 23.4422 98.883C23.3765 99.9495 23.0069 101.054 22.3335 102.195L17.8661 109.768L0.984849 99.8084L5.43797 92.2601C6.08294 91.1668 6.83877 90.3449 7.70546 89.7942C8.57215 89.2435 9.46972 88.9712 10.3982 88.9771C11.3361 88.9669 12.2392 89.2179 13.1073 89.7301C13.9112 90.2043 14.5223 90.8033 14.9407 91.5269C15.359 92.2505 15.5558 93.0926 15.5309 94.0532ZM12.7464 96.7342C13.3155 95.7696 13.5172 94.9133 13.3516 94.1654C13.1793 93.3919 12.6592 92.7491 11.791 92.2369C10.135 91.26 8.73318 91.7442 7.58552 93.6896L4.62625 98.7057L9.7871 101.75L12.7464 96.7342ZM20.0436 101.007C20.6317 100.01 20.8524 99.1215 20.7058 98.3415C20.5591 97.5614 20.0517 96.9153 19.1835 96.4031C18.3475 95.9099 17.5687 95.7972 16.8472 96.0651C16.1096 96.3235 15.4467 96.9511 14.8587 97.9479L11.8852 102.988L17.0702 106.047L20.0436 101.007ZM33.495 87.1791C32.3063 88.6424 30.8772 89.7061 29.2075 90.3699C27.5235 91.0221 25.8049 91.2133 24.0519 90.9437C22.2844 90.6623 20.6762 89.9331 19.2273 88.7562C17.7784 87.5792 16.7424 86.1605 16.1193 84.4999C15.4816 82.8276 15.3167 81.1063 15.6243 79.3361C15.9175 77.5541 16.6584 75.9314 17.8472 74.4681C19.0359 73.0047 20.4723 71.9469 22.1564 71.2948C23.826 70.6309 25.5445 70.4397 27.312 70.7211C29.065 70.9907 30.666 71.714 32.1149 72.891C33.5637 74.0679 34.607 75.4925 35.2446 77.1649C35.8678 78.8254 36.0328 80.5467 35.7396 82.3287C35.4319 84.0989 34.6837 85.7157 33.495 87.1791ZM31.4086 85.4843C32.256 84.4411 32.7734 83.2861 32.9607 82.0193C33.1597 80.7381 33.0247 79.498 32.5555 78.2993C32.0836 77.0742 31.3189 76.0321 30.2612 75.1729C29.2035 74.3138 28.034 73.7846 26.7528 73.5856C25.4688 73.3603 24.2202 73.4763 23.0069 73.9337C21.8054 74.3766 20.7809 75.1197 19.9335 76.1629C19.0861 77.206 18.5629 78.3683 18.3638 79.6495C18.1766 80.9163 18.3189 82.1622 18.7907 83.3872C19.2599 84.586 20.0233 85.615 21.081 86.4742C22.1387 87.3333 23.3095 87.8756 24.5935 88.1009C25.8747 88.3 27.1161 88.178 28.3176 87.7351C29.5309 87.2777 30.5612 86.5274 31.4086 85.4843ZM54.4145 65.9326L52.3211 67.7922L41.0895 55.1484L34.2233 61.2477L37.3474 64.7645C39.1945 66.8439 40.5968 68.6193 41.5544 70.0907C42.4995 71.5482 42.9796 72.9319 42.9947 74.2418C43.0237 75.5393 42.4103 76.7459 41.1543 77.8617C40.917 78.0724 40.5224 78.373 39.9704 78.7635L38.1852 76.7539C38.6535 76.4378 38.9714 76.2054 39.1388 76.0566C39.7947 75.4739 40.136 74.8462 40.1626 74.1735C40.1891 73.5007 39.8151 72.5596 39.0404 71.3502C38.2657 70.1408 36.9361 68.4755 35.0518 66.3542L30.3657 61.079L41.3977 51.2792L54.4145 65.9326ZM66.1395 58.3722C64.5459 59.3797 62.8521 59.9315 61.0579 60.0278C59.2537 60.1083 57.564 59.741 55.9888 58.926C54.4035 58.0952 53.1122 56.8908 52.1147 55.313C51.1173 53.7352 50.5883 52.06 50.5277 50.2874C50.4572 48.499 50.8502 46.8151 51.7068 45.2357C52.5534 43.6405 53.7735 42.3391 55.3671 41.3317C56.9607 40.3243 58.6596 39.7803 60.4637 39.6998C62.2579 39.6035 63.9476 39.9708 65.5328 40.8016C67.1081 41.6167 68.3945 42.8131 69.3919 44.3909C70.3894 45.9688 70.9234 47.6519 70.9939 49.4402C71.0544 51.2128 70.6614 52.8967 69.8148 54.4919C68.9582 56.0714 67.7332 57.3648 66.1395 58.3722ZM64.7032 56.1002C65.8393 55.382 66.6982 54.4526 67.28 53.3118C67.8776 52.1611 68.1454 50.9428 68.0834 49.657C68.0272 48.3454 67.635 47.1137 66.9068 45.9619C66.1787 44.8101 65.2393 43.9354 64.0886 43.3378C62.9437 42.7145 61.7233 42.4259 60.4275 42.4721C59.1475 42.5084 57.9394 42.8856 56.8034 43.6038C55.6674 44.3219 54.8006 45.2564 54.203 46.4071C53.6212 47.5478 53.3584 48.774 53.4146 50.0856C53.4766 51.3714 53.8717 52.5902 54.5998 53.742C55.3279 54.8938 56.2645 55.7814 57.4094 56.4048C58.5601 57.0023 59.7754 57.283 61.0555 57.2468C62.3513 57.2005 63.5672 56.8183 64.7032 56.1002ZM93.1756 41.7778L95.8765 48.1141L93.4038 49.1682L91.7569 45.3045L77.6932 51.2993L79.3402 55.1629L76.8674 56.217L74.1665 49.8806L76.0983 49.0571C76.2177 48.1946 76.1035 47.0461 75.7558 45.6115C75.4252 44.1696 74.6891 42.1093 73.5472 39.4305L70.7804 32.9396L84.4834 27.0986L91.115 42.6561L93.1756 41.7778ZM88.5392 43.7541L82.9617 30.6692L74.3844 34.3254L76.0533 38.2405C77.8027 42.3446 78.7278 45.5622 78.8286 47.8933L88.5392 43.7541ZM92.6504 24.344L95.3702 23.6785L99.1171 38.9907L106.168 21.0364L109.513 20.2178L114.172 39.2561L111.452 39.9216L107.605 24.2014L100.301 42.6502L97.309 43.3823L92.6504 24.344ZM142.314 37.3462L139.517 37.4896L138.693 21.4107L130.681 37.9425L121.082 22.4256L121.9 38.3926L119.104 38.536L118.101 18.9617L122.043 18.7596L130.479 32.3735L137.479 17.9683L141.31 17.7719L142.314 37.3462ZM149.909 18.1386L152.684 18.5159L150.559 34.1361L163.698 20.0138L167.111 20.4779L164.47 39.8991L161.695 39.5218L163.876 23.4854L150.32 37.9749L147.268 37.5598L149.909 18.1386ZM183.07 24.5249C184.325 24.8909 185.329 25.4465 186.084 26.1918C186.862 26.9243 187.361 27.7797 187.581 28.7578C187.824 29.7233 187.792 30.7347 187.483 31.7919C187.175 32.8492 186.656 33.7283 185.926 34.4294C185.22 35.1177 184.339 35.5705 183.284 35.7876C182.252 35.9921 181.109 35.9113 179.855 35.5453L174.318 33.9297L172.043 41.7247L169.355 40.9404L174.845 22.125L183.07 24.5249ZM180.503 33.0221C181.579 33.3358 182.467 33.3228 183.169 32.9831C183.876 32.6256 184.374 31.954 184.661 30.9684C184.949 29.9828 184.888 29.1581 184.479 28.4943C184.07 27.8305 183.328 27.3417 182.252 27.028L176.796 25.4359L175.047 31.43L180.503 33.0221ZM206.825 43.1849C207.984 43.7883 208.861 44.529 209.456 45.4071C210.076 46.2772 210.399 47.2134 210.425 48.2157C210.475 49.2101 210.246 50.1957 209.737 51.1726C209.229 52.1494 208.548 52.9106 207.696 53.456C206.869 53.9935 205.917 54.2659 204.84 54.2733C203.788 54.2728 202.683 53.9708 201.524 53.3674L193.924 49.4107L202.975 32.0258L215.145 38.3618L213.929 40.6963L204.243 35.6534L201.709 40.5212L206.825 43.1849ZM202.665 50.9941C203.658 51.5113 204.532 51.6717 205.287 51.4754C206.05 51.2624 206.669 50.7007 207.143 49.79C207.617 48.8794 207.718 48.0587 207.446 47.3278C207.174 46.597 206.541 45.973 205.548 45.4558L200.506 42.8309L197.623 48.3692L202.665 50.9941ZM223.491 43.4077L212.766 59.8132L210.422 58.2811L221.147 41.8756L223.491 43.4077ZM229.796 73.4746L227.635 71.6951L238.383 58.6381L231.293 52.8011L228.303 56.4329C226.535 58.5802 224.999 60.241 223.694 61.4151C222.401 62.5749 221.108 63.2638 219.816 63.4819C218.539 63.7119 217.252 63.293 215.955 62.2252C215.71 62.0235 215.352 61.6803 214.88 61.1956L216.589 59.1203C216.974 59.5339 217.253 59.8118 217.425 59.9542C218.103 60.5118 218.776 60.7515 219.445 60.6734C220.113 60.5953 220.985 60.0798 222.06 59.1269C223.134 58.174 224.573 56.6022 226.376 54.4117L230.861 48.9641L242.253 58.3425L229.796 73.4746ZM248.14 64.0561L249.983 66.1634L238.119 76.5437L257.303 74.5292L259.571 77.1211L244.82 90.0274L242.976 87.9202L255.156 77.2632L235.417 79.2804L233.389 76.9624L248.14 64.0561ZM258.659 93.8755L254.886 92.8778L249.296 96.4013L247.803 94.0325L264.384 83.5815L265.877 85.9502L257.634 91.1459L271.416 94.7383L273.252 97.6518L261.369 94.5509L256.82 108.34L254.865 105.237L258.659 93.8755Z" fill="white" fill-opacity="0.8"/>
</svg>
