<svg width="264" height="170" viewBox="0 0 264 170" fill="none" xmlns="http://www.w3.org/2000/svg">
<path d="M32.1623 91.9662L30.3472 94.0982L18.0883 83.6612L24.6114 100.835L6.73829 97.1652L18.9119 107.53L17.0967 109.662L2.17291 96.9557L4.73224 93.9496L20.4232 97.1591L14.7517 82.1811L17.2385 79.2603L32.1623 91.9662ZM23.4062 73.2592L25.5849 71.5004L35.4872 83.7661L34.234 64.5177L36.9138 62.3544L49.2257 77.6048L47.0471 79.3637L36.8809 66.7711L38.1147 86.5749L35.7182 88.5097L23.4062 73.2592ZM53.5419 63.9151L52.4188 67.6528L55.7537 73.3575L53.3365 74.7707L43.4447 57.8499L45.8619 56.4368L50.7796 64.8488L54.8299 51.1941L57.8032 49.456L54.3073 61.2297L67.9367 66.2355L64.7701 68.0866L53.5419 63.9151ZM77.703 62.8145C75.9525 63.5147 74.1864 63.7486 72.4047 63.5164C70.6161 63.2668 69.0216 62.5978 67.6212 61.5094C66.2139 60.4037 65.1636 58.9842 64.4703 57.2511C63.777 55.5179 63.5621 53.7743 63.8256 52.0204C64.0821 50.2491 64.7753 48.665 65.9053 47.2681C67.0284 45.8538 68.4652 44.7966 70.2157 44.0964C71.9662 43.3962 73.7357 43.1709 75.5243 43.4204C77.306 43.6527 78.9005 44.3217 80.3079 45.4274C81.7083 46.5158 82.7551 47.9266 83.4484 49.6598C84.1416 51.3929 84.36 53.1452 84.1035 54.9164C83.8401 56.6704 83.1468 58.2545 82.0237 59.6688C80.8937 61.0657 79.4535 62.1143 77.703 62.8145ZM76.7047 60.3187C77.9525 59.8196 78.9664 59.0622 79.7464 58.0465C80.5436 57.024 81.0289 55.8749 81.2022 54.5993C81.3859 53.2994 81.2247 52.0169 80.7186 50.7517C80.2125 49.4865 79.4482 48.4552 78.4257 47.658C77.4135 46.8365 76.2661 46.3304 74.9836 46.1398C73.7184 45.9422 72.4619 46.093 71.214 46.5921C69.9661 47.0913 68.9436 47.8521 68.1463 48.8747C67.3664 49.8903 66.8846 51.0481 66.7009 52.3479C66.5276 53.6236 66.6939 54.894 67.2 56.1592C67.7061 57.4244 68.4652 58.4677 69.4774 59.2892C70.5 60.0865 71.6438 60.5839 72.9091 60.7815C74.1916 60.9721 75.4568 60.8179 76.7047 60.3187ZM106.315 54.4231L103.581 55.0303L99.9144 38.5206L90.9489 40.512L91.9688 45.1041C92.5719 47.8192 92.9341 50.0525 93.0554 51.8039C93.1726 53.537 92.9194 54.9796 92.2957 56.1315C91.6902 57.2795 90.5674 58.0356 88.9274 58.3998C88.6176 58.4687 88.1266 58.5395 87.4544 58.6123L86.8716 55.9882C87.4344 55.9397 87.8252 55.8912 88.0439 55.8426C88.9003 55.6523 89.5037 55.2697 89.8541 54.6948C90.2044 54.1198 90.3351 53.1156 90.2461 51.6821C90.1572 50.2486 89.8051 48.1469 89.1899 45.3771L87.66 38.489L102.065 35.2894L106.315 54.4231ZM124.319 48.4893L113.753 49.103L112.084 53.6875L109.037 53.8644L116.678 33.7876L119.808 33.6058L129.722 52.6631L126.507 52.8498L124.319 48.4893ZM123.079 45.981L118.354 36.5791L114.721 46.4664L123.079 45.981ZM140.572 43.5698C140.862 41.7257 141.558 40.1157 142.662 38.7396C143.788 37.348 145.175 36.3375 146.823 35.7082C148.474 35.0605 150.222 34.8814 152.066 35.1709C153.486 35.3939 154.77 35.8789 155.919 36.6261C157.07 37.3549 158.009 38.2959 158.735 39.4491C159.482 40.5868 159.964 41.8528 160.179 43.2471L157.109 42.765C156.731 41.4398 156.072 40.3442 155.131 39.4784C154.211 38.5971 153.05 38.0464 151.649 37.8264C150.34 37.6208 149.099 37.7568 147.929 38.2343C146.758 38.7118 145.77 39.4638 144.967 40.4902C144.185 41.5011 143.688 42.6796 143.476 44.0258C143.265 45.372 143.375 46.6553 143.807 47.8757C144.261 49.0806 144.971 50.0897 145.94 50.9031C146.908 51.7164 148.046 52.2259 149.356 52.4315C150.757 52.6515 152.029 52.4922 153.172 51.9536C154.336 51.3995 155.301 50.5495 156.067 49.4037L159.137 49.8858C158.504 51.1469 157.657 52.2137 156.594 53.0861C155.552 53.9429 154.37 54.5509 153.048 54.9102C151.729 55.251 150.359 55.3099 148.939 55.0869C147.095 54.7974 145.485 54.1006 144.109 52.9965C142.735 51.8739 141.725 50.487 141.077 48.8359C140.451 47.1693 140.282 45.4139 140.572 43.5698ZM174.694 56.8209L164.613 53.5984L161.408 57.2775L158.501 56.3483L172.843 40.3557L175.831 41.3105L178.238 62.6568L175.17 61.6764L174.694 56.8209ZM174.438 54.0347L173.406 43.5631L166.464 51.4857L174.438 54.0347ZM196.232 60.3378C196.838 61.1774 197.181 62.0436 197.262 62.9364C197.35 63.8124 197.18 64.6858 196.751 65.5565C196.281 66.511 195.634 67.2536 194.81 67.7843C194.012 68.3066 193.079 68.575 192.01 68.5896C190.942 68.6042 189.813 68.3187 188.624 67.7329L180.738 63.8471L189.4 46.2653L197.262 50.1387C198.4 50.6997 199.277 51.3917 199.891 52.2145C200.505 53.0374 200.844 53.912 200.908 54.8382C200.989 55.7728 200.806 56.6921 200.361 57.5963C199.948 58.4336 199.397 59.0879 198.707 59.5595C198.017 60.031 197.192 60.2905 196.232 60.3378ZM193.349 57.7626C194.354 58.2576 195.223 58.3944 195.956 58.1731C196.715 57.9433 197.317 57.3762 197.762 56.472C198.612 54.7473 198.024 53.3859 195.998 52.3876L190.773 49.8136L188.125 55.1886L193.349 57.7626ZM189.637 65.3603C190.675 65.8718 191.578 66.0251 192.345 65.8203C193.111 65.6154 193.718 65.0609 194.163 64.1567C194.592 63.286 194.646 62.5009 194.325 61.8016C194.012 61.0855 193.336 60.4717 192.298 59.9601L187.048 57.3737L184.388 62.7739L189.637 65.3603ZM220.342 64.3802L209.279 80.5595L206.968 78.979L211.551 72.2762L206.235 68.6412C205.172 67.9142 204.392 67.087 203.896 66.1595C203.425 65.2272 203.232 64.2697 203.316 63.287C203.41 62.2888 203.768 61.3352 204.39 60.426L207.63 55.6878L209.941 57.2682L206.701 62.0065C206.122 62.8539 205.918 63.6644 206.09 64.4379C206.273 65.196 206.834 65.8964 207.774 66.5391L213.021 70.1266L218.031 62.7997L220.342 64.3802ZM239.527 81.3934L218.7 88.8003L216.341 86.6091L220.801 85.0574L224.898 67.8077L227.401 70.1323L223.914 84.0507L237.188 79.2212L239.527 81.3934ZM238.77 96.6094L234.91 96.029L229.737 100.141L227.995 97.949L243.338 85.7526L245.08 87.9445L237.453 94.0078L251.545 96.0762L253.688 98.7722L241.537 96.9853L238.519 111.188L236.236 108.317L238.77 96.6094Z" fill="white" fill-opacity="0.8"/>
</svg>
