<svg width="186" height="176" viewBox="0 0 186 176" fill="none" xmlns="http://www.w3.org/2000/svg">
<path d="M19.873 77.2169L13.9699 80.979L23.0592 95.2409L20.6979 96.7457L11.6087 82.4838L5.70558 86.2459L4.26093 83.9791L18.4284 74.9501L19.873 77.2169ZM38.7175 87.5637C36.9975 88.3358 35.2426 88.6427 33.4528 88.4844C31.6554 88.3091 30.0346 87.7067 28.5903 86.6772C27.1384 85.6306 26.0303 84.2559 25.2658 82.5529C24.5014 80.8499 24.2145 79.1168 24.4051 77.3534C24.5881 75.573 25.2151 73.9616 26.2864 72.5191C27.3499 71.0595 28.7417 69.9437 30.4617 69.1717C32.1817 68.3996 33.9404 68.1012 35.7378 68.2765C37.5276 68.4348 39.1484 69.0372 40.6003 70.0838C42.0446 71.1133 43.1489 72.4795 43.9133 74.1825C44.6778 75.8855 44.9685 77.6271 44.7855 79.4075C44.595 81.1709 43.9679 82.7823 42.9043 84.2419C41.8331 85.6844 40.4375 86.7917 38.7175 87.5637ZM37.6167 85.1115C38.8428 84.5611 39.8245 83.7624 40.5617 82.7153C41.316 81.6606 41.7532 80.4924 41.8736 79.2107C42.0033 77.9044 41.7892 76.6296 41.2312 75.3865C40.6731 74.1433 39.8668 73.1446 38.8121 72.3904C37.7668 71.6114 36.5995 71.1533 35.3101 71.0159C34.0378 70.8709 32.7886 71.0736 31.5625 71.6239C30.3363 72.1743 29.3462 72.9769 28.5919 74.0316C27.8547 75.0786 27.4212 76.2553 27.2915 77.5617C27.1711 78.8434 27.39 80.1058 27.948 81.349C28.506 82.5921 29.3077 83.6032 30.353 84.3821C31.4077 85.1363 32.5712 85.5859 33.8435 85.731C35.1328 85.8683 36.3906 85.6618 37.6167 85.1115ZM56.6929 68.5997C57.9525 68.2522 59.0992 68.1972 60.1329 68.4348C61.1797 68.6495 62.0537 69.1151 62.7549 69.8318C63.4692 70.5255 63.9727 71.4031 64.2657 72.4648C64.5586 73.5265 64.5788 74.5472 64.3263 75.527C64.0868 76.4838 63.5753 77.3317 62.7916 78.0708C62.021 78.7869 61.0059 79.3187 59.7463 79.6662L51.4869 81.9451L46.2738 63.0511L59.4996 59.4019L60.1997 61.9391L49.673 64.8436L51.1327 70.1339L56.6929 68.5997ZM58.9652 77.1514C60.0449 76.8535 60.7941 76.3757 61.2129 75.7179C61.6268 75.0422 61.6972 74.2095 61.4241 73.2198C61.151 72.2301 60.6661 71.5603 59.9693 71.2104C59.2724 70.8604 58.3842 70.8344 57.3045 71.1323L51.8252 72.6441L53.486 78.6632L58.9652 77.1514ZM69.0468 57.4128L72.367 76.7295L69.6074 77.2038L66.2873 57.8871L69.0468 57.4128ZM90.3698 70.7722L79.8095 71.4797L78.1813 76.0788L75.1361 76.2828L82.5983 56.139L85.7273 55.9294L95.8098 74.8978L92.597 75.1131L90.3698 70.7722ZM89.1081 68.275L84.2997 58.9155L80.7548 68.8346L89.1081 68.275ZM97.3278 65.2853C97.491 63.4258 98.0764 61.772 99.0842 60.3239C100.112 58.8588 101.427 57.7562 103.029 57.016C104.632 56.2573 106.363 55.9595 108.223 56.1227C109.654 56.2483 110.969 56.6448 112.166 57.312C113.364 57.9606 114.365 58.8354 115.168 59.9365C115.991 61.0206 116.557 62.2508 116.868 63.6272L113.771 63.3555C113.304 62.059 112.572 61.011 111.574 60.2113C110.596 59.3947 109.401 58.9244 107.988 58.8004C106.667 58.6845 105.439 58.9047 104.304 59.4609C103.168 60.017 102.234 60.8345 101.503 61.9134C100.791 62.9752 100.376 64.1849 100.257 65.5423C100.137 66.8998 100.335 68.1726 100.849 69.3607C101.383 70.5319 102.161 71.4903 103.183 72.2358C104.204 72.9812 105.375 73.4119 106.695 73.5278C108.108 73.6518 109.367 73.4062 110.47 72.791C111.593 72.1588 112.498 71.2451 113.184 70.0498L116.28 70.3215C115.735 71.6228 114.962 72.7448 113.961 73.6876C112.98 74.6134 111.842 75.3006 110.548 75.7491C109.254 76.179 107.892 76.3312 106.46 76.2055C104.601 76.0423 102.947 75.4568 101.499 74.449C100.052 73.4226 98.9495 72.1079 98.1908 70.5047C97.4522 68.8846 97.1646 67.1448 97.3278 65.2853ZM145.648 67.011L138.934 65.0313L134.151 81.2528L131.465 80.4609L136.249 64.2394L129.534 62.2596L130.295 59.6814L146.409 64.4327L145.648 67.011ZM150.248 87.9651C148.532 87.1838 147.143 86.069 146.079 84.6207C145.024 83.1555 144.405 81.5407 144.224 79.7763C144.051 77.995 144.351 76.2549 145.124 74.5561C145.898 72.8572 147.01 71.497 148.459 70.4753C149.917 69.4366 151.541 68.8429 153.332 68.6943C155.13 68.5287 156.887 68.8365 158.603 69.6178C160.319 70.3992 161.704 71.5225 162.76 72.9877C163.824 74.436 164.442 76.0508 164.615 77.8321C164.796 79.5965 164.5 81.3281 163.727 83.0269C162.953 84.7257 161.837 86.0945 160.38 87.1332C158.93 88.1549 157.306 88.7486 155.508 88.9142C153.717 89.0628 151.964 88.7465 150.248 87.9651ZM151.362 85.5188C152.585 86.0758 153.833 86.2852 155.106 86.147C156.396 86.0166 157.562 85.5733 158.604 84.817C159.671 84.0515 160.486 83.0486 161.051 81.8085C161.616 80.5684 161.833 79.3033 161.702 78.0132C161.597 76.7139 161.169 75.5349 160.421 74.4761C159.689 73.4251 158.712 72.6211 157.489 72.0641C156.266 71.5072 155.009 71.2939 153.719 71.4243C152.446 71.5625 151.276 72.0143 150.21 72.7799C149.168 73.5361 148.365 74.5343 147.8 75.7745C147.235 77.0146 147.006 78.2843 147.112 79.5836C147.242 80.8737 147.673 82.0442 148.404 83.0952C149.153 84.154 150.139 84.9618 151.362 85.5188ZM183.152 86.9423L177.26 83.1636L168.13 97.3998L165.773 95.8883L174.903 81.6521L169.01 77.8734L170.461 75.6107L184.603 84.6796L183.152 86.9423Z" fill="white" fill-opacity="0.8"/>
</svg>
