<svg id="icon" fill=none xmlns=http://www.w3.org/2000/svg height=118 width=105><path d="M20.206 85.481q-.051.21-.115.423l-.11.377.34.196 24.272 14.013.34.197.271-.284a9.97 9.97 0 0 1 7.22-3.087 9.96 9.96 0 0 1 7.22 3.087l.271.284.34-.197 24.267-14.01.34-.196-.11-.377a10 10 0 0 1-.115-.426l-.093-.381H20.299zm35.018-65.39a10 10 0 0 1-5.601 0l-.377-.11-.195.34-31.73 54.96-.197.34.283.27a10 10 0 0 1 2.8 4.843l.092.382h64.245l.093-.382a10 10 0 0 1 2.8-4.846l.284-.272-.197-.34-31.728-54.955-.195-.34zm-10.631-2.774L20.32 31.33l-.34.195.11.377a9.996 9.996 0 0 1-7.216 12.507l-.382.093v28.805l.382.092q.214.053.426.116l.376.109.196-.34 31.73-54.957.196-.34-.283-.271q-.159-.153-.312-.312l-.271-.283zM8.51 44.504l-.382-.093C3.75 43.348.5 39.404.5 34.701l.013-.516c.268-5.28 4.635-9.48 9.983-9.48 2.84 0 5.4 1.185 7.22 3.088l.272.283.34-.196 24.27-14.012.34-.195-.109-.377a10 10 0 0 1-.4-2.8l.012-.515C42.71 4.701 47.077.5 52.425.5c5.52 0 9.995 4.476 9.995 9.996a10 10 0 0 1-.401 2.8l-.11.377.34.195 24.267 14.01.34.196.271-.283a9.96 9.96 0 0 1 6.69-3.072l.53-.014c5.52 0 9.996 4.475 9.996 9.995 0 4.702-3.248 8.644-7.622 9.71l-.382.093v28.803l.382.092c4.374 1.066 7.622 5.009 7.622 9.71l-.013.515c-.268 5.281-4.635 9.481-9.983 9.481-2.84 0-5.4-1.185-7.221-3.087l-.272-.284-.34.197-24.265 14.008-.34.196.11.377c.259.889.4 1.829.4 2.801l-.012.515c-.268 5.281-4.634 9.481-9.982 9.482-5.52 0-9.996-4.476-9.996-9.997 0-.972.141-1.911.4-2.8l.11-.377-.34-.196-24.27-14.012-.34-.197-.272.284a9.96 9.96 0 0 1-7.22 3.09C4.975 93.105.5 88.63.5 83.109c0-4.703 3.25-8.647 7.628-9.71l.382-.093zm83.846 0-.382-.093c-4.375-1.065-7.622-5.009-7.622-9.71l.006-.364c.03-.843.167-1.66.394-2.438l.11-.377-.34-.195-24.267-14.01-.34-.196-.271.283q-.153.16-.312.312l-.283.271.196.34 31.729 54.955.195.34.377-.11q.212-.061.428-.115l.382-.092z"></path></svg>