<svg id="icon" fill=none xmlns=http://www.w3.org/2000/svg height=56 width=128><rect x=0.5 y=0.5 height=55 width=127 rx=27.5></rect><path d="M19 22.346c0-2.289.692-4.524 1.985-6.41a11.3 11.3 0 0 1 5.255-4.153 11.24 11.24 0 0 1 6.675-.435 11.27 11.27 0 0 1 5.746 3.437 1.15 1.15 0 0 0 1.296.27c.144-.063.274-.155.381-.27a11.25 11.25 0 0 1 5.746-3.465 11.2 11.2 0 0 1 6.69.428 11.26 11.26 0 0 1 5.26 4.168A11.3 11.3 0 0 1 60 22.346c0 4.71-3.075 8.228-6.15 11.313L42.59 44.588A4.1 4.1 0 0 1 39.525 46a4.09 4.09 0 0 1-3.084-1.373L25.15 33.659C22.075 30.574 19 27.077 19 22.346M78.88 16.41q1.433.011 2.864.544 1.432.535 2.614 1.773 1.181 1.228 1.898 3.352.716 2.126.716 5.33 0 3.102-.591 5.511-.58 2.398-1.682 4.046-1.09 1.648-2.66 2.5-1.556.852-3.522.852-1.954 0-3.489-.773a6.85 6.85 0 0 1-2.5-2.17q-.965-1.398-1.238-3.239h2.772q.375 1.603 1.49 2.648 1.125 1.035 2.965 1.034 2.694 0 4.25-2.352 1.569-2.352 1.568-6.648h-.182a7.1 7.1 0 0 1-1.511 1.648 6.7 6.7 0 0 1-1.943 1.068q-1.068.375-2.273.375a7.1 7.1 0 0 1-3.67-.988 7.5 7.5 0 0 1-2.66-2.74q-.988-1.75-.988-4 0-2.136.954-3.908a7.4 7.4 0 0 1 2.705-2.841q1.75-1.057 4.114-1.023m0 2.5q-1.431 0-2.579.715a5.15 5.15 0 0 0-1.807 1.91q-.66 1.191-.659 2.647 0 1.454.637 2.648a5.1 5.1 0 0 0 1.761 1.886q1.125.693 2.557.693 1.08 0 2.011-.42a5.2 5.2 0 0 0 1.625-1.17q.705-.75 1.102-1.694a5.1 5.1 0 0 0 .398-1.989q0-1.363-.659-2.556a5.23 5.23 0 0 0-1.795-1.932q-1.137-.74-2.591-.739m20.288 21.408a8.7 8.7 0 0 1-2.864-.545q-1.432-.523-2.614-1.762-1.181-1.25-1.897-3.375-.716-2.136-.716-5.363 0-3.091.58-5.477.579-2.399 1.681-4.035 1.102-1.647 2.66-2.5 1.568-.852 3.533-.852 1.954 0 3.478.784a6.64 6.64 0 0 1 2.5 2.16q.965 1.385 1.25 3.192h-2.773q-.387-1.567-1.5-2.602-1.114-1.034-2.955-1.034-2.704 0-4.261 2.352-1.546 2.354-1.557 6.603h.182a6.84 6.84 0 0 1 3.466-2.716 6.8 6.8 0 0 1 2.261-.375q2 0 3.659 1 1.66.989 2.659 2.738 1 1.74 1 3.989 0 2.16-.966 3.955a7.36 7.36 0 0 1-2.715 2.84q-1.74 1.045-4.091 1.023m0-2.5q1.431 0 2.568-.716a5.1 5.1 0 0 0 1.807-1.92q.67-1.205.67-2.682 0-1.443-.648-2.625a4.94 4.94 0 0 0-1.761-1.898q-1.113-.705-2.546-.704-1.08 0-2.01.431a5.2 5.2 0 0 0-1.637 1.16 5.6 5.6 0 0 0-1.091 1.693 5.1 5.1 0 0 0-.398 1.988q0 1.387.648 2.591a5.33 5.33 0 0 0 1.795 1.944q1.148.738 2.603.738"></path></svg>