<svg id="icon" class="w-full dark:fill-white fill-black max-w-50"
                                                        xmlns=http://www.w3.org/2000/svg viewBox="0 0 63 63"
                                                        aria-hidden=true enable-background="new 0 0 63 63" x=0 y=0>
                                                        <path
                                                            d="M8.2 20.3c-.2.1-.4.4-.8.3-.1-.6-.6-.4-.8-.4v-.4l1-.1v-1.5c-1.1 0-2.2-.1-3.2-.1v-.3l2.2-.1.9-.1v-.8c.4 0 .7-.1 1-.4 0-.1 0-.1-3-.1 0-.4 0-.4.1-.4 1.3-.1 2.6-.1 3.9-.2.2.2.4.3.3.7-.8.1-1.1.5-1.6 1v.2h2.1c.3-.3 1.3-.7 1.3.3l-1.9.2c0 .1 0 .1-1.5.1v2c.1.1 0 .1 0 .1zm-3-5.7c-.1 0-.2 0-.2-.2h-.2c-.1.6-.3 1.1-.6 1.6l.1.3.5-.1c.1-.3.2-.7.4-1 1.8-.1 3.6-.2 5.3-.2l-.2.8c.2 0 .2 0 1.3-.5-.4-1.8-1.6-.4-2.2-.9.4-.5 1-.9 1.1-1.2-.2-.2-.5-.4-.8-.4-.3.6-.6 1.2-.8 1.8H5.2zm.8-.1c-.3-.8-.7-1.1-.8-1.3 0-.1.1-.1.2-.1.5.1 1.2.4 1 1.4H6zm1.8-.3c-.6 0-.9-1.3-.9-1.5.5.1 1.3.3 1.1 1.4-.1 0-.1.1-.2.1zM3.6 24.5H.8v-.4c.8-.1 1.8-.1 2.7-.1l.1-2.3c.2 0 .5 0 .7.1-.1.4-.1.4-.1 2.2h2.5l.3-.3c.3 0 .4.1.9.4 0 .1-.1.2-.1.3-1.1 0-2.2.1-3.3.1.5 2 1.3 2.8 3.3 3.9v.2c-2.1.9-3.2-2.4-3.7-3.5-.6 2-1.5 3.5-3.6 4.1.2-.7 1-1 1.6-1.5.9-.9 1.3-2 1.5-3.2zM2.2 40c-.1-1-.1-2-.1-3-.1 0-.1-.1-.2-.2-.4.5-.9 1.1-1.3 1.6 0-1.2.9-2.2 1.2-3.2H.5v-.3c.5-.1.9-.1 1.4-.1v-1.2c-.4.1-.9.1-1.4.2v-.2c.9-.5 2.2-1.6 3.3-.9v.4c-.4.1-.9.2-1.3.4v1.3c.5 0 .5-.3.9-.3.2.2.4.3.6.5-.5.1-1 .2-1.5.2 0 .2 0 .3.1.5.6.3 1 .2 1 1.2-.2 0-.3-.1-.5-.1-.3-.4-.3-.3-.6-.4v3.5s-.2.1-.3.1zm3.9-.1c.2-.1.3-.2.5-.2l.1-2.6c.4-.1.8-.2 1.2-.4 0-.7-.2-.8-.6-.8-.1.2-.2.3-.2.5h-.4c0-1.1-.3-3.5.2-3.9v-.4c-.3 0-.6 0-.8-.1v4.6c-1 .2-2.1.2-2.8.7 0 .1 0 .2.1.2.4 0 .4 0 2.5-.4 0-.1 0-.1.4-.1l-.2 2.9zM4.2 35c.3.1.3 1.2 1.3 1.3-.1-1.2-.1-1-1-1.6-.1 0-.2 0-.3.1v.2zm1-.8c-.4-.6-.9-1-.9-1.5.5.1 1.4.3 1.2 1.4.1 0-.3.1-.3.1zM3.6 48.3h3v-5.1H3.7v-.4c1.2 0 2.5 0 3.7-.1.7-.1 1.4-.2 2.2-.4.1.1.6.3.5.8h-.6l-2.2.1v5h2.2c.6-.4.6-.6 1.4 0 0 .4 0 .4-.1.4l-5.2.1h-2v-.4zm19.2 13.9v-7.3c.3 0 .6.1.8.2 0 .3-.2.7-.1 1.5l.9.5c0 .3 0 .5.1.8h-.3c-.2-.3-.4-.6-.8-.7v.7c-.1 0-.1 4.5 0 4.5 0 .1-.1.3-.1.4-.1 0-.3.1-.4.1-.1-.2-.1-.5-.1-.7zm-.9-3c.9-.4.6-1.2.6-1.9h-.3c-.1.7-.4 1-.4 1.8l.1.1zm2.2-1.3c0 .2-.1.3-.1.5 1.7 0 3.5 0 5.2-.1 0-.3 0-.5-.2-.6-.7 0-1.5 0-2.2.1v-.3l2-.1v-.5c-.7-.4-1.5 0-1.9 0v-.5c.8 0 1.5 0 2.3-.1.1-.3 0-.5-.3-.7-.9.1-1.3.3-2 .3 0-.3.1-.6.2-.9-1-.2-1-.1-1 .8-.6.1-1.3.1-1.9.2v.3c.6 0 1.2 0 1.9.1v.4c-.1.2-.1.2-1.4.2v.2c.5.2 1 .2 1.5.2v.3l-1.7.1-.4.1zm.8 3.7v-3c.9.1 1.7.2 2.6.2.3-.2.5-.2 1 .2v.4c-.1 0-.1.1-.2.2-.1 1-.1 2.1-.1 3.1-.2.2-.4.3-.6.2-.2-.6-.5-.4-.7-.5v-.3c.2 0 .5-.1.7-.1h.1v-1c-2.2 0-2.2 0-2.2.1 0 .6 0 1.2-.1 1.8l-.5.1v-1.4zm2.6-1.9c0-.1 0-.2.1-.2h-2c-.1 0-.1 0-.1.4 2-.1 2-.1 2-.2zm0 .5h-1.9l-.2.2c-.1.1-.1.1-.1.2h2.3v-.4h-.1zm7.4.4v-.2h1.4v-.2c0-1.9 0-1.9-.1-1.9-.4.5-.8 1.1-1.1 1.6l-.6.6c-.5.4-1 .8-1.5 1.1 0-.9.9-1.3 1.4-1.9l1.4-2.2c.1 0 .1 0 .1-.4-2 0-2 0-2 .1-.6 0-.6 0-.8-.1V57c.9-.1 1.9-.1 2.9-.2h.3c0-.6 0-1.2.1-1.8.5 0 .5 0 .7.2v1.6c.7.1 1.5.1 2.2 0 .4-.4 1.3-.4 1.1.5-1.1 0-2.1.1-3.1.2.8 1.5 1.5 2.2 3.3 3.2v.3c-1 .5-1.3 0-1.8-.4-.3-.2-.5-.5-.8-.7-.3-.5-.7-1-1-1.5 0-.1-.1-.1-.1-.2v2.2h.5c.2-.3.6-.4.8-.2.2.1.3.4.3.6l-1.5.1c0 .5.2 1.9-.6 2l-.1-2-1.4-.1v-.2zm17-6.5c-.4-2.1 0-4.6-.2-6.6-.2-.1-.3-.2-.4-.2V47c.4 0 .7-.1 1.2.3-.1.8-.1 1.5-.1 2.3.6.1 2.9.5 2.7 1.9h-.5c-.9-.9-1.3-1-2.2-1.4-.4.2-.1 3-.1 3.9-.2 0-.3 0-.4.1zm3-5c-.9-1-.9-1-.9-1.2.4 0 .8.2 1.2.4 0 .3.1.5.1.8h-.4zm1-.7c-.4-.3-.7-.7-1.1-1 .9-.1 1.2-.1 1.4 1h-.3zm.3-3.8c-.8-.6-.8-1-.9-1.5.2 0 .4.1.6.4 1.6 0 4.4-2.8 5.6-3.9h.3c-.3 1.1-4.6 4.7-5.6 5zm.3-3.9c-.3-.8-.7-1.2-1.1-1.5 0-.1-.1-.3-.1-.4.8.2 1.8.4 1.6 1.7l-.4.2zm1.1-3.9v-.2c1.5-1.2 3.1-2.5 3.7-4.4-1 .1-4.8 1.2-4.5-.5 1.5 1 4.2-.9 5.6.2v.4c-.1 0-.2.1-.3.2-1.1 1.7-2.5 3.6-4.5 4.3zm.2-6c-.5-.4-.5-.7-.5-1 1 .3 2.7.2 4 0 .2 0 .4.1.5.2l.1.5c-1.4-.1-2.7 0-4.1.3zm.4-9.8c-.1-.2-.5-.5-.5-.6.3 0 1.2-.2 1.2.7-.1 0-.1.1-.2.1v2.9c0 1.9.1 2.4 0 3.2-.2 0-.3.1-.4.1V21h-.1zM43.8 59.4v-6.9c1 .5 3.5-.3 4.2.4-.1 1-.1 1-.1 5.9-.1.1-.1.1-.5.2-.1-.2-.1-.5-.2-.7h-2.7c-.1.4-.2.7-.2 1.1-.3-.1-.4 0-.5 0zm3.4-4.3v-1.8c-.9-.1-1.9-.1-2.8 0v1.8h2.8zm-2.8 2.7c1-.1 1.9-.1 2.8-.2v-2h-2.8c-.1.8-.1 1.5 0 2.2zm-27-4.6c-.2 0-.3.1-.5.2-.2-.2-.5-.4-.8-.5 0-.1-.1-.2-.1-.3.3 0 .5-.1.8-.2.1 0 .1 0 .1-1.5h-1.5v.1c-.1.8-.1 1.6 0 2.4.6 0 1.4.1 2.2-.1.1.1.2.1.3.2 0 .8-.5 1.5-.8 2.3.3.4.8.7 1.3.8-.1.2-.1.3-.2.5-.9.3-1.3-.6-1.6-.6-.4.5-1.2 1.3-1.8 1.3v-2.5c.1 0 .1 0 .1-.6-.5.1-1.1.1-1.6.2H13v.7h.7c.2-.4.9-.3 1 .4-.5.1-1.1.1-1.7.2 0 1.5 0 1.5-.1 1.7h-.5c0-.6-.1-1.2-.1-1.7-.4-.1-.9-.1-1.3-.2 0-.2 0-.3.1-.4h1.2v-.8c-.5 0-.9-.1-1.4-.1v-.3c.2-.1.5-.1.7-.1 0-.4-.1-.8-.3-1.2-.2 0-.4-.1-.6-.1v-.4c.6 0 1.1-.1 1.6-.1v-.7h-1.2v-.5h1.2v-1.2c.3 0 .5 0 .8.1l-.1 1c.5 0 .5 0 .8-.3.2.1.4.3.6.4v.3c-.5 0-1 .1-1.5.2 0 .2 0 .4.1.6.6 0 .9-.3 1.8 0v-2.1c.9.1 1.7.2 2.6 0 .3.5.3 2.3 0 2.9zm-3.8 1.1c.3-.2.6-.4 1.1 0 0-.4.1-.8.1-1.2-.8.1-.9.5-1.2 1.2zm-1.3 0c.2 0 .5-.1.7-.1.1-.4.3-.8.4-1.1-.4-.1-.9-.1-1.4 0 0 .3.3.6.3 1.2zm4.2 1h.2c.1-.5.2-1 .4-1.4l-1.1.2c.1.3.1.3.5 1.2zm-1 1.7c1.2-1.3.7-1.3 0-2.8V57zm35.8-39.3c0 .2.1.4.2.6.9-.2 1.5-2.3 1.5-3.1.1.1-1.4 2-1.7 2.5zm5.9-4h-.1l-.3.3-1.9.1c0-.5.1-.9.2-1.3-.5-.2-.5-.2-1.2-.3v.3c.2.2.7.8.4 1.5-1 0-2.3 0-2.9-.2 0 1.5 1.6.7 2.9.7 0 1.1.1 2.1.2 3.1v.3c-.2 0-.2 0-1.3-.7v.4c.3.3.7.5 1 1.2h.5c.7-1.1.3-3.5.3-4.5h2.9c-.1-.5-.2-.6-.4-.7-.1-.1-.2-.2-.3-.2zm-1.4 1.7v.3c.5.3 1.2 1.5 1.5 2.4.1 0 .3-.1.4-.1-.1-1.5-.8-2.4-1.9-2.6zm2.5-3.2c-1.1-1.1-2.4.4-1.1 1.5h.3l.1.1c.8-.5.7-.8.7-1.6zm-.5.8c-.2.1-.2.1-.7.2 0-.2-.1-.4-.1-.7.3-.3.3-.4.9-.1 0 .2-.1.4-.1.6zm-43 .1l-4.2-5.3 2.5-2c.3-.2.6-.3 1-.3s.7.2.9.5l1.1 1.3c.4.4.4 1 .1 1.5-.1.2-.2.3-.4.4L14 10.6l1.4 1.8c.2.2.1.5-.1.6-.1 0-.1.1-.2.1h-.2c.1.2 0 .1-.1 0zM13.5 10l1.8-1.4c.1-.1.2-.2.2-.3 0-.1 0-.2-.1-.3l-1.1-1.3c-.1-.1-.2-.2-.3-.2-.1 0-.2 0-.3.1L11.9 8l1.6 2zm7.4-1.9l-.5-1.3v-.3c.1-.2.2-.3.4-.3s.3.1.4.3l.5 1.4c0 .1.1.2.2.2h.4l.9-.3c.2-.1.3-.2.3-.4v-.2l-1.9-5c-.1-.2 0-.4.1-.5.1-.1.3-.2.5-.1.1 0 .2.1.3.3l1.9 5c.1.3.1.7 0 1.1-.1.3-.4.6-.8.7l-.9.3c-.3.1-.7.1-1.1 0-.4-.3-.6-.5-.7-.9zm8.4-1.5L31.1.3c0-.2.3-.4.5-.3.2 0 .4.1.4.3l1.9 6.3c.1.2 0 .5-.2.6h-.2c-.2 0-.4-.1-.5-.3l-.4-1.2h-2.1L30.1 7c0 .1-.1.1-.1.2-.1.1-.2.1-.2.1-.2 0-.4-.1-.4-.3v-.2l-.1-.2zm2.2-4.5l-.8 2.6h1.5l-.7-2.6zm7.8 0l.4-1.1L44 2.4l-.4 1.2c0 .1-.1.2-.2.3-.1.1-.2.1-.3 0-.2-.1-.4-.3-.3-.6V3l-.8-.3-1.9 5.5c-.1.2-.3.4-.6.3-.1 0-.1-.1-.2-.1-.1-.1-.2-.2-.2-.3v-.2L41 2.4l-.9-.3-.1.3c0 .1-.1.2-.2.3-.1.1-.2.1-.3 0-.1 0-.2-.1-.3-.2 0-.1 0-.3.1-.4zm5.4 8.3l3.8-5c.1-.1.2-.2.3-.2.1 0 .2 0 .3.1.1.1.2.2.2.3v.2c0 .1 0 .1-.1.2l-1.3 1.7 3.8-.2c.1 0 .2 0 .3.1.1.1.2.2.2.3 0 .1 0 .2-.1.3-.1.1-.2.2-.3.2l-4.3.3.9 4.3c0 .1 0 .1-.1.1-.1.1-.2.2-.3.2-.1 0-.3 0-.4-.1-.1-.1-.2-.2-.2-.3l-.8-3.8-1.3 1.8c-.1.1-.2.2-.3.2-.1 0-.2 0-.3-.1-.2-.2-.2-.4 0-.6-.1 0-.1 0 0 0z"
                                                            class=logo-sygnet__text></path>
                                                        <path
                                                            d="M31.5 11.6c-11.1 0-20.1 9-20 20.1 0 11.1 9 20.1 20.1 20s20.1-9 20-20.1c-.1-11.1-9-20-20.1-20zm-17 20c-.1-9.4 7.4-17.1 16.8-17.2h.2c9.4 0 17 7.6 17 17v.2h-34z"
                                                            class=logo-sygnet__symbol fill=#E30613></path>
                                                        <path
                                                            d="M48.5 31.4v.2h-34c-.1-9.4 7.4-17.1 16.8-17.2h.2c9.4 0 17 7.6 17 17z"
                                                            class=logo-sygnet__bg fill=#fff></path>
                                                    </svg>