<svg id="icon" class="w-full h-full"
                            fill=none viewBox="0 0 619 330">
                            <path
                                d="M411.5 25.5C411.5 27.1569 412.843 28.5 414.5 28.5H500.5C502.157 28.5 503.5 29.8431 503.5 31.5V57C503.5 58.6569 504.843 60 506.5 60H528.5C530.157 60 531.5 61.3431 531.5 63V85.5C531.5 87.1569 532.843 88.5 534.5 88.5H557.5C559.157 88.5 560.5 89.8431 560.5 91.5V131C560.5 132.657 561.843 134 563.5 134H586C587.657 134 589 135.343 589 137V156C589 157.657 590.343 159 592 159H610.5C612.157 159 613.5 160.343 613.5 162V208.5C613.5 210.157 612.157 211.5 610.5 211.5H592C590.343 211.5 589 212.843 589 214.5V269C589 270.657 587.657 272 586 272H563.5C561.843 272 560.5 273.343 560.5 275V295C560.5 296.657 559.157 298 557.5 298H534.5C532.843 298 531.5 299.343 531.5 301V322C531.5 323.657 530.157 325 528.5 325H506.5C504.843 325 503.5 323.657 503.5 322V301C503.5 299.343 502.157 298 500.5 298H476C474.343 298 473 296.657 473 295V275C473 273.343 471.657 272 470 272H443.5C441.843 272 440.5 273.343 440.5 275V295.5C440.5 297.157 439.157 298.5 437.5 298.5H414C412.343 298.5 411 299.843 411 301.5V321.5C411 323.157 409.657 324.5 408 324.5H210.5C208.843 324.5 207.5 323.157 207.5 321.5V300.5C207.5 298.843 206.157 297.5 204.5 297.5H181C179.343 297.5 178 296.157 178 294.5V275C178 273.343 176.657 272 175 272H146.5C144.843 272 143.5 273.343 143.5 275V295C143.5 296.657 142.157 298 140.5 298H121C119.343 298 118 299.343 118 301V322C118 323.657 116.657 325 115 325H90.5C88.8431 325 87.5 323.657 87.5 322V301C87.5 299.343 86.1569 298 84.5 298H62C60.3431 298 59 296.657 59 295V275C59 273.343 57.6569 272 56 272H34.5C32.8431 272 31.5 270.657 31.5 269V213C31.5 211.343 30.1569 210 28.5 210H8C6.34315 210 5 208.657 5 207V160.5C5 158.843 6.34315 157.5 8 157.5H28.5C30.1569 157.5 31.5 156.157 31.5 154.5V115C31.5 113.343 32.8431 112 34.5 112H56C57.6569 112 59 110.657 59 109V91.5C59 89.8431 60.3431 88.5 62 88.5H84.5C86.1569 88.5 87.5 87.1569 87.5 85.5V63C87.5 61.3431 88.8431 60 90.5 60H115C116.657 60 118 58.6569 118 57V31.5C118 29.8431 119.343 28.5 121 28.5H203.5C205.157 28.5 206.5 27.1569 206.5 25.5V8C206.5 6.34315 207.843 5 209.5 5H408.5C410.157 5 411.5 6.34315 411.5 8V25.5Z"
                                fill=#010101></path>
                            <path
                                d="M414.5 28.5V33.5H500.5V28.5V23.5H414.5V28.5ZM503.5 31.5H498.5V57H503.5H508.5V31.5H503.5ZM506.5 60V65H528.5V60V55H506.5V60ZM531.5 63H526.5V85.5H531.5H536.5V63H531.5ZM534.5 88.5V93.5H557.5V88.5V83.5H534.5V88.5ZM560.5 91.5H555.5V131H560.5H565.5V91.5H560.5ZM563.5 134V139H586V134V129H563.5V134ZM589 137H584V156H589H594V137H589ZM592 159V164H610.5V159V154H592V159ZM613.5 162H608.5V208.5H613.5H618.5V162H613.5ZM610.5 211.5V206.5H592V211.5V216.5H610.5V211.5ZM589 214.5H584V269H589H594V214.5H589ZM586 272V267H563.5V272V277H586V272ZM560.5 275H555.5V295H560.5H565.5V275H560.5ZM557.5 298V293H534.5V298V303H557.5V298ZM531.5 301H526.5V322H531.5H536.5V301H531.5ZM528.5 325V320H506.5V325V330H528.5V325ZM503.5 322H508.5V301H503.5H498.5V322H503.5ZM500.5 298V293H476V298V303H500.5V298ZM473 295H478V275H473H468V295H473ZM470 272V267H443.5V272V277H470V272ZM440.5 275H435.5V295.5H440.5H445.5V275H440.5ZM437.5 298.5V293.5H414V298.5V303.5H437.5V298.5ZM411 301.5H406V321.5H411H416V301.5H411ZM408 324.5V319.5H210.5V324.5V329.5H408V324.5ZM207.5 321.5H212.5V300.5H207.5H202.5V321.5H207.5ZM204.5 297.5V292.5H181V297.5V302.5H204.5V297.5ZM178 294.5H183V275H178H173V294.5H178ZM175 272V267H146.5V272V277H175V272ZM143.5 275H138.5V295H143.5H148.5V275H143.5ZM140.5 298V293H121V298V303H140.5V298ZM118 301H113V322H118H123V301H118ZM115 325V320H90.5V325V330H115V325ZM87.5 322H92.5V301H87.5H82.5V322H87.5ZM84.5 298V293H62V298V303H84.5V298ZM59 295H64V275H59H54V295H59ZM56 272V267H34.5V272V277H56V272ZM31.5 269H36.5V213H31.5H26.5V269H31.5ZM28.5 210V205H8V210V215H28.5V210ZM5 207H10V160.5H5H0V207H5ZM8 157.5V162.5H28.5V157.5V152.5H8V157.5ZM31.5 154.5H36.5V115H31.5H26.5V154.5H31.5ZM34.5 112V117H56V112V107H34.5V112ZM59 109H64V91.5H59H54V109H59ZM62 88.5V93.5H84.5V88.5V83.5H62V88.5ZM87.5 85.5H92.5V63H87.5H82.5V85.5H87.5ZM90.5 60V65H115V60V55H90.5V60ZM118 57H123V31.5H118H113V57H118ZM121 28.5V33.5H203.5V28.5V23.5H121V28.5ZM206.5 25.5H211.5V8H206.5H201.5V25.5H206.5ZM209.5 5V10H408.5V5V0H209.5V5ZM411.5 8H406.5V25.5H411.5H416.5V8H411.5ZM408.5 5V10C407.395 10 406.5 9.10456 406.5 8H411.5H416.5C416.5 3.58173 412.918 0 408.5 0V5ZM206.5 8H211.5C211.5 9.10457 210.605 10 209.5 10V5V0C205.082 0 201.5 3.58172 201.5 8H206.5ZM203.5 28.5V33.5C207.918 33.5 211.5 29.9183 211.5 25.5H206.5H201.5C201.5 24.3954 202.395 23.5 203.5 23.5V28.5ZM118 31.5H123C123 32.6046 122.105 33.5 121 33.5V28.5V23.5C116.582 23.5 113 27.0817 113 31.5H118ZM115 60V65C119.418 65 123 61.4183 123 57H118H113C113 55.8954 113.895 55 115 55V60ZM87.5 63H92.5C92.5 64.1046 91.6046 65 90.5 65V60V55C86.0817 55 82.5 58.5817 82.5 63H87.5ZM84.5 88.5V93.5C88.9183 93.5 92.5 89.9183 92.5 85.5H87.5H82.5C82.5 84.3954 83.3954 83.5 84.5 83.5V88.5ZM59 91.5H64C64 92.6046 63.1046 93.5 62 93.5V88.5V83.5C57.5817 83.5 54 87.0817 54 91.5H59ZM56 112V117C60.4183 117 64 113.418 64 109H59H54C54 107.895 54.8954 107 56 107V112ZM31.5 115H36.5C36.5 116.105 35.6046 117 34.5 117V112V107C30.0817 107 26.5 110.582 26.5 115H31.5ZM28.5 157.5V162.5C32.9183 162.5 36.5 158.918 36.5 154.5H31.5H26.5C26.5 153.395 27.3954 152.5 28.5 152.5V157.5ZM5 160.5H10C10 161.605 9.10457 162.5 8 162.5V157.5V152.5C3.58172 152.5 0 156.082 0 160.5H5ZM8 210V205C9.10457 205 10 205.895 10 207H5H0C0 211.418 3.58172 215 8 215V210ZM31.5 213H36.5C36.5 208.582 32.9183 205 28.5 205V210V215C27.3954 215 26.5 214.105 26.5 213H31.5ZM34.5 272V267C35.6046 267 36.5 267.895 36.5 269H31.5H26.5C26.5 273.418 30.0817 277 34.5 277V272ZM59 275H64C64 270.582 60.4183 267 56 267V272V277C54.8954 277 54 276.105 54 275H59ZM62 298V293C63.1046 293 64 293.895 64 295H59H54C54 299.418 57.5817 303 62 303V298ZM87.5 301H92.5C92.5 296.582 88.9183 293 84.5 293V298V303C83.3954 303 82.5 302.105 82.5 301H87.5ZM90.5 325V320C91.6046 320 92.5 320.895 92.5 322H87.5H82.5C82.5 326.418 86.0817 330 90.5 330V325ZM118 322H113C113 320.895 113.895 320 115 320V325V330C119.418 330 123 326.418 123 322H118ZM121 298V293C116.582 293 113 296.582 113 301H118H123C123 302.105 122.105 303 121 303V298ZM143.5 295H138.5C138.5 293.895 139.395 293 140.5 293V298V303C144.918 303 148.5 299.418 148.5 295H143.5ZM146.5 272V267C142.082 267 138.5 270.582 138.5 275H143.5H148.5C148.5 276.105 147.605 277 146.5 277V272ZM178 275H183C183 270.582 179.418 267 175 267V272V277C173.895 277 173 276.105 173 275H178ZM181 297.5V292.5C182.105 292.5 183 293.395 183 294.5H178H173C173 298.918 176.582 302.5 181 302.5V297.5ZM207.5 300.5H212.5C212.5 296.082 208.918 292.5 204.5 292.5V297.5V302.5C203.395 302.5 202.5 301.605 202.5 300.5H207.5ZM210.5 324.5V319.5C211.605 319.5 212.5 320.395 212.5 321.5H207.5H202.5C202.5 325.918 206.082 329.5 210.5 329.5V324.5ZM411 321.5H406C406 320.395 406.895 319.5 408 319.5V324.5V329.5C412.418 329.5 416 325.918 416 321.5H411ZM414 298.5V293.5C409.582 293.5 406 297.082 406 301.5H411H416C416 302.605 415.105 303.5 414 303.5V298.5ZM440.5 295.5H435.5C435.5 294.395 436.395 293.5 437.5 293.5V298.5V303.5C441.918 303.5 445.5 299.918 445.5 295.5H440.5ZM443.5 272V267C439.082 267 435.5 270.582 435.5 275H440.5H445.5C445.5 276.105 444.605 277 443.5 277V272ZM473 275H478C478 270.582 474.418 267 470 267V272V277C468.895 277 468 276.105 468 275H473ZM476 298V293C477.105 293 478 293.895 478 295H473H468C468 299.418 471.582 303 476 303V298ZM503.5 301H508.5C508.5 296.582 504.918 293 500.5 293V298V303C499.395 303 498.5 302.105 498.5 301H503.5ZM506.5 325V320C507.605 320 508.5 320.895 508.5 322H503.5H498.5C498.5 326.418 502.082 330 506.5 330V325ZM531.5 322H526.5C526.5 320.895 527.395 320 528.5 320V325V330C532.918 330 536.5 326.418 536.5 322H531.5ZM534.5 298V293C530.082 293 526.5 296.582 526.5 301H531.5H536.5C536.5 302.105 535.605 303 534.5 303V298ZM560.5 295H555.5C555.5 293.895 556.395 293 557.5 293V298V303C561.918 303 565.5 299.418 565.5 295H560.5ZM563.5 272V267C559.082 267 555.5 270.582 555.5 275H560.5H565.5C565.5 276.105 564.605 277 563.5 277V272ZM589 269H584C584 267.895 584.895 267 586 267V272V277C590.418 277 594 273.418 594 269H589ZM592 211.5V206.5C587.582 206.5 584 210.082 584 214.5H589H594C594 215.605 593.105 216.5 592 216.5V211.5ZM613.5 208.5H608.5C608.5 207.395 609.395 206.5 610.5 206.5V211.5V216.5C614.918 216.5 618.5 212.918 618.5 208.5H613.5ZM610.5 159V164C609.395 164 608.5 163.105 608.5 162H613.5H618.5C618.5 157.582 614.918 154 610.5 154V159ZM589 156H584C584 160.418 587.582 164 592 164V159V154C593.105 154 594 154.895 594 156H589ZM586 134V139C584.895 139 584 138.105 584 137H589H594C594 132.582 590.418 129 586 129V134ZM560.5 131H555.5C555.5 135.418 559.082 139 563.5 139V134V129C564.605 129 565.5 129.895 565.5 131H560.5ZM557.5 88.5V93.5C556.395 93.5 555.5 92.6046 555.5 91.5H560.5H565.5C565.5 87.0817 561.918 83.5 557.5 83.5V88.5ZM531.5 85.5H526.5C526.5 89.9183 530.082 93.5 534.5 93.5V88.5V83.5C535.605 83.5 536.5 84.3954 536.5 85.5H531.5ZM528.5 60V65C527.395 65 526.5 64.1046 526.5 63H531.5H536.5C536.5 58.5817 532.918 55 528.5 55V60ZM503.5 57H498.5C498.5 61.4183 502.082 65 506.5 65V60V55C507.605 55 508.5 55.8954 508.5 57H503.5ZM500.5 28.5V33.5C499.395 33.5 498.5 32.6046 498.5 31.5H503.5H508.5C508.5 27.0817 504.918 23.5 500.5 23.5V28.5ZM414.5 28.5V23.5C415.605 23.5 416.5 24.3954 416.5 25.5H411.5H406.5C406.5 29.9183 410.082 33.5 414.5 33.5V28.5Z"
                                fill=white></path>
                            <path d="M94.5 270H65V107.5H94.5V270Z" fill=#531A13></path>
                            <path d="M123.5 240.5H94.5V84.5H123.5V240.5Z" fill=#8B4033></path>
                            <path d="M521 278H551V139H521V278Z" fill=#531A13></path>
                            <path d="M492 250H521V117H492V250Z" fill=#8B4033></path>
                            <rect height=50 width=27 x=149 y=109 fill=#531A13></rect>
                            <rect height=25 width=26 x=179 y=84 fill=#531A13></rect>
                            <rect height=25 width=28 x=205 y=84 fill=#8B4136></rect>
                            <rect height=25 width=28 x=205 y=59 fill=#AA5142></rect>
                            <rect height=25 width=28 x=232 y=59 fill=#C86446></rect>
                            <rect height=25 width=28 x=177 y=159 fill=#9C4A38></rect>
                            <rect height=25 width=28 x=205 y=159 fill=#D09F53></rect>
                            <rect height=16 width=16 x=216.5 y=109.5 fill=#FBFBFB rx=1.5 stroke=#894D45></rect>
                            <rect height=75 width=27 x=233 y=84 fill=#9C4839></rect>
                            <rect height=25 width=28 x=354 y=133 fill=#A54C3D></rect>
                            <rect height=23 width=28 x=354 y=110 fill=#552016></rect>
                            <rect height=23 width=28 x=440 y=110 fill=#9D4633></rect>
                            <rect height=25 width=28 x=440 y=133 fill=#511C14></rect>
                            <rect height=25 width=28 x=440 y=158 fill=#984639></rect>
                            <rect height=25 width=28 x=381 y=158 fill=#D09C50></rect>
                            <rect height=25 width=31 x=409 y=158 fill=#511C14></rect>
                            <rect height=23 width=58 x=382 y=87 fill=#552016></rect>
                            <rect height=27 width=28 x=354 y=60 fill=#B75846></rect>
                            <rect height=27 width=28 x=382 y=60 fill=#A74F41></rect>
                            <rect height=23 width=28 x=354 y=87 fill=#8D4135></rect>
                            <rect height=16 width=16 x=423.5 y=110.5 fill=#FBFBFB rx=1.5></rect>
                            <rect height=16 width=16 x=423.5 y=110.5 rx=1.5 stroke=#9D4633></rect>
                            <rect height=16 width=16 x=423.5 y=110.5 rx=1.5 stroke=#464646></rect>
                            <path
                                d="M232.763 209.5H180C179.448 209.5 179 209.948 179 210.5V268.5C179 269.052 179.448 269.5 180 269.5H438C438.552 269.5 439 269.052 439 268.5V210.5C439 209.948 438.552 209.5 438 209.5H383.757C383.205 209.5 382.757 209.052 382.757 208.5V182C382.757 181.448 382.309 181 381.757 181H234.763C234.211 181 233.763 181.448 233.763 182V208.5C233.763 209.052 233.315 209.5 232.763 209.5Z"
                                fill=#F38E59></path>
                            <rect height=24.8334 width=24.8334 x=233.68 y=210.083 fill=#ED874F rx=1></rect>
                            <rect height=27 width=31.575 x=323.554 y=181 fill=#B16531 rx=1></rect>
                            <rect height=27 width=27.6281 x=355.129 y=181 fill=#D27841 rx=1></rect>
                            <rect height=62 width=96.6983 x=258.431 y=208 fill=#010101 rx=1></rect>
                            <path
                                d="M179.493 289.5V272C179.493 270.343 180.837 269 182.493 269H436C437.657 269 439 270.343 439 272V290C439 291.657 437.657 293 436 293H412.892C411.235 293 409.892 294.343 409.892 296V316.007C409.892 317.661 408.553 319.003 406.899 319.007L212.102 319.493C210.443 319.497 209.095 318.152 209.095 316.493V295.5C209.095 293.843 207.752 292.5 206.095 292.5H182.493C180.836 292.5 179.493 291.157 179.493 289.5Z"
                                fill=#6F3811></path>
                            <rect height=26 width=34.5351 x=257.937 y=269 fill=#BF6A30 rx=1></rect>
                            <rect height=26 width=35.5218 x=323.061 y=269 fill=#C06933 rx=1></rect>
                            <rect height=26 width=30.5882 x=292.472 y=269 fill=#010101 rx=1></rect>
                            <rect height=26 width=31.575 x=227.349 y=269 fill=#010101 rx=1></rect>
                            <rect height=26 width=30.5882 x=358.583 y=269 fill=#010101 rx=1></rect>
                        </svg>