<svg xmlns="http://www.w3.org/2000/svg" fill="none" class="h-full w-auto" viewBox="0 0 26 32"><path fill="#D9D9D9" fill-rule="evenodd" d="M10.735 23.073C4.665 22.73 0 20.693 0 18.232v3.19c0 2.435 4.563 4.454 10.538 4.83zm5.839 2.984c4.956-.654 8.524-2.482 8.524-4.635v-3.19c0 1.857-2.656 3.473-6.57 4.302q-.674 1.254-1.954 3.523" clip-rule="evenodd"/><path fill="#D9D9D9" fill-rule="evenodd" d="M5.827 17.471C2.324 16.604 0 15.077 0 13.34v3.19c0 1.407 1.523 2.675 3.962 3.567q.069-.17.186-.334.975-1.344 1.679-2.292m13.694 3.127c3.363-.877 5.577-2.372 5.577-4.068v-3.19c0 1.466-1.656 2.782-4.279 3.68q.049.346-.091.733-.504 1.382-1.207 2.845" clip-rule="evenodd"/><path fill="#D9D9D9" fill-rule="evenodd" d="M25.098 8.448c0-2.702-5.618-4.892-12.549-4.892S0 5.746 0 8.448v3.19c0 1.914 2.82 3.571 6.929 4.375l.07-.089q.49-.638 2.39-4.023c-4.33-.457-7.475-1.83-7.475-3.453 0-1.997 3.616-3.829 10.635-3.829s10.635 1.832 10.635 3.829c0 1.783-3.797 3.265-8.793 3.561l-.28 4.483c6.193-.3 10.987-2.358 10.987-4.854z" clip-rule="evenodd"/><path fill="#F97316" d="M12.906 8.12c.163-.3.621-.164.6.177l-.598 9.642c2.664-.092 4.447-.302 6.383-.91.25-.079.483.15.394.396a34 34 0 0 1-1.856 4.12c-1.127 2.13-4.386 7.821-5.807 10.294-.168.292-.613.155-.592-.181l.603-9.73c-2.45-.071-4.534-.268-6.718-.915a.312.312 0 0 1-.163-.484c.595-.82 2.072-2.852 2.822-3.818.725-.933 3.596-6.144 4.932-8.59"/></svg>