<svg width="285" height="145" viewBox="0 0 285 145" fill="none" xmlns="http://www.w3.org/2000/svg">
<path d="M2.30261 98.1742L19.4733 107.625L18.1231 110.078L0.952427 100.627L2.30261 98.1742ZM15.218 83.0087L9.50967 91.6542L23.6228 100.973L22.08 103.309L5.72372 92.5097L12.9749 81.5276L15.218 83.0087ZM36.5984 84.7214C35.3509 86.1349 33.8794 87.1393 32.1841 87.7344C30.4748 88.3172 28.7498 88.4381 27.0093 88.097C25.2548 87.7436 23.6777 86.9494 22.2782 85.7142C20.8786 84.479 19.9014 83.0191 19.3466 81.3345C18.7778 79.6375 18.6833 77.9109 19.0631 76.1548C19.4288 74.3863 20.2354 72.7952 21.4829 71.3816C22.7304 69.9681 24.2089 68.9699 25.9182 68.3871C27.6135 67.792 29.3385 67.6711 31.093 68.0245C32.8335 68.3655 34.4036 69.1536 35.8032 70.3888C37.2028 71.624 38.1869 73.09 38.7557 74.787C39.3105 76.4717 39.405 78.1982 39.0393 79.9668C38.6595 81.7229 37.8459 83.3078 36.5984 84.7214ZM34.583 82.9427C35.4723 81.935 36.0364 80.8022 36.2753 79.5441C36.5266 78.2721 36.4423 77.0276 36.0225 75.8106C35.601 74.5673 34.8795 73.4948 33.8578 72.5931C32.8361 71.6915 31.6892 71.115 30.4172 70.8638C29.1435 70.5862 27.8912 70.6511 26.6602 71.0585C25.4416 71.452 24.3876 72.1526 23.4983 73.1603C22.609 74.168 22.0387 75.3078 21.7875 76.5799C21.5486 77.8379 21.6399 79.0886 22.0613 80.3319C22.4811 81.5489 23.2018 82.6082 24.2235 83.5099C25.2452 84.4115 26.3929 85.0012 27.6666 85.2787C28.9387 85.53 30.184 85.4589 31.4026 85.0654C32.6335 84.658 33.6937 83.9504 34.583 82.9427ZM39.9196 53.7926C40.9226 52.9551 41.9438 52.4306 42.9833 52.2193C44.0251 51.9816 45.0134 52.044 45.9483 52.4064C46.8855 52.7424 47.7071 53.3331 48.4129 54.1785C49.1188 55.0239 49.5595 55.9448 49.735 56.9413C49.9128 57.9114 49.7979 58.895 49.3901 59.8921C48.9848 60.8628 48.2806 61.767 47.2777 62.6045L42.8502 66.3014L48.0547 72.5342L45.9054 74.3289L33.3429 59.2842L39.9196 53.7926ZM45.5442 60.6595C46.4039 59.9417 46.8883 59.1967 46.9975 58.4246C47.0947 57.6382 46.8143 56.8509 46.1562 56.0629C45.4982 55.2748 44.7796 54.8657 44.0004 54.8354C43.2212 54.8051 42.4018 55.1488 41.5421 55.8667L37.1791 59.5098L41.1812 64.3026L45.5442 60.6595ZM72.1988 33.4486L81.4446 50.7309L78.9757 52.0517L74.9868 44.5957L65.1112 49.8789L69.1001 57.335L66.6312 58.6558L57.3855 41.3735L59.8544 40.0527L63.8432 47.5088L73.7188 42.2255L69.7299 34.7695L72.1988 33.4486ZM94.6228 46.1568C92.8358 46.7576 91.0593 46.8921 89.2935 46.5602C87.5217 46.2106 85.9673 45.4532 84.6302 44.2878C83.2871 43.1048 82.3182 41.6287 81.7233 39.8593C81.1284 38.09 81.0117 36.3371 81.3732 34.6007C81.7287 32.8466 82.5098 31.3039 83.7165 29.9726C84.9172 28.6236 86.411 27.6487 88.1981 27.0479C89.9851 26.4471 91.7645 26.3214 93.5363 26.671C95.3021 27.0029 96.8566 27.7604 98.1996 28.9434C99.5367 30.1087 100.503 31.576 101.098 33.3454C101.692 35.1147 101.812 36.8764 101.457 38.6305C101.095 40.3669 100.314 41.9096 99.1133 43.2586C97.9067 44.5899 96.4098 45.5559 94.6228 46.1568ZM93.7662 43.6089C95.0401 43.1806 96.0949 42.4813 96.9306 41.5111C97.784 40.5349 98.333 39.4148 98.5777 38.151C98.8341 36.8635 98.7451 35.5739 98.3109 34.2823C97.8766 32.9907 97.1714 31.9182 96.1952 31.0648C95.2307 30.1877 94.1136 29.6181 92.8438 29.3557C91.5916 29.0874 90.3286 29.1674 89.0547 29.5958C87.7808 30.0241 86.7171 30.7263 85.8637 31.7025C85.028 32.6728 84.482 33.8017 84.2256 35.0892C83.9809 36.353 84.0757 37.6308 84.51 38.9224C84.9443 40.214 85.6436 41.2983 86.6081 42.1754C87.5843 43.0288 88.6984 43.5896 89.9506 43.8579C91.2204 44.1202 92.4922 44.0372 93.7662 43.6089ZM118.336 29.8485C119.32 30.1703 120.108 30.6684 120.698 31.3427C121.286 31.9986 121.662 32.8047 121.828 33.7611C122.01 34.8094 121.925 35.7905 121.572 36.7043C121.234 37.5965 120.638 38.3631 119.783 39.004C118.928 39.645 117.847 40.0787 116.541 40.3053L107.879 41.8085L104.528 22.497L113.163 20.9987C114.413 20.7817 115.529 20.8249 116.51 21.1283C117.491 21.4317 118.28 21.9389 118.877 22.65C119.493 23.3579 119.887 24.2084 120.059 25.2016C120.218 26.1212 120.158 26.9747 119.878 27.7622C119.598 28.5497 119.084 29.2451 118.336 29.8485ZM114.49 29.4645C115.593 29.273 116.376 28.8719 116.839 28.2612C117.316 27.6289 117.469 26.8162 117.296 25.823C116.968 23.9286 115.691 23.1745 113.465 23.5607L107.727 24.5564L108.751 30.4602L114.49 29.4645ZM115.963 37.7912C117.103 37.5933 117.923 37.1858 118.422 36.5687C118.921 35.9516 119.085 35.1465 118.912 34.1534C118.746 33.197 118.328 32.5308 117.656 32.1547C116.982 31.7602 116.074 31.662 114.934 31.8598L109.168 32.8603L110.197 38.7917L115.963 37.7912ZM135.21 39.1657C133.325 39.194 131.592 38.7814 130.011 37.9277C128.43 37.0554 127.18 35.8607 126.261 34.3437C125.342 32.808 124.868 31.107 124.84 29.2405C124.812 27.3741 125.234 25.6688 126.107 24.1249C126.98 22.5622 128.193 21.3305 129.748 20.4297C131.302 19.5102 133.022 19.0363 134.907 19.0079C136.792 18.9796 138.526 19.4016 140.107 20.2739C141.688 21.1275 142.938 22.3222 143.857 23.8579C144.776 25.3749 145.25 27.0666 145.278 28.9331C145.306 30.7995 144.884 32.5141 144.011 34.0767C143.138 35.6207 141.924 36.8524 140.37 37.7719C138.815 38.6727 137.096 39.1373 135.21 39.1657ZM135.17 36.478C136.514 36.4577 137.732 36.1127 138.823 35.4429C139.933 34.7728 140.797 33.873 141.415 32.7436C142.051 31.5953 142.359 30.3398 142.338 28.9773C142.318 27.6148 141.972 26.3785 141.302 25.2685C140.65 24.1395 139.76 23.2568 138.63 22.6204C137.519 21.9837 136.292 21.6754 134.948 21.6956C133.604 21.7158 132.377 22.061 131.267 22.7311C130.175 23.4009 129.312 24.31 128.676 25.4584C128.058 26.5878 127.759 27.8338 127.78 29.1963C127.8 30.5588 128.136 31.8046 128.788 32.9335C129.458 34.0436 130.349 34.917 131.46 35.5537C132.589 36.1901 133.826 36.4982 135.17 36.478ZM149.346 29.2031C149.619 27.3565 150.301 25.7403 151.393 24.3545C152.506 22.9529 153.884 21.9302 155.527 21.2862C157.172 20.6238 158.918 20.4292 160.764 20.7023C162.186 20.9126 163.475 21.3862 164.63 22.1231C165.788 22.8416 166.735 23.7742 167.471 24.9209C168.229 26.0519 168.721 27.3136 168.949 28.7059L165.875 28.2512C165.485 26.9293 164.816 25.8397 163.868 24.9823C162.94 24.1092 161.774 23.5689 160.371 23.3613C159.06 23.1674 157.821 23.3144 156.655 23.8023C155.488 24.2902 154.507 25.051 153.713 26.0845C152.94 27.1023 152.453 28.2853 152.254 29.6333C152.055 30.9813 152.176 32.2635 152.619 33.4801C153.083 34.6809 153.803 35.6836 154.778 36.4883C155.754 37.293 156.897 37.7923 158.208 37.9863C159.611 38.1938 160.882 38.0232 162.02 37.4745C163.179 36.91 164.136 36.0514 164.892 34.8989L167.966 35.3536C167.345 36.6203 166.507 37.6946 165.452 38.5764C164.418 39.4425 163.241 40.061 161.922 40.432C160.606 40.7845 159.237 40.8556 157.815 40.6453C155.968 40.3722 154.352 39.6898 152.966 38.5979C151.583 37.4876 150.56 36.1098 149.898 34.4645C149.257 32.8035 149.073 31.0497 149.346 29.2031ZM179.392 42.9172C180.746 43.3408 182.028 43.3702 183.237 43.0054C184.47 42.6284 185.549 41.9295 186.475 40.9087L189.441 41.8368C188.63 42.9913 187.635 43.9218 186.455 44.6285C185.299 45.323 184.041 45.7507 182.68 45.9116C181.324 46.0548 179.961 45.9117 178.589 45.4825C176.826 44.9307 175.344 44.0075 174.145 42.7131C172.97 41.4065 172.192 39.8918 171.812 38.1689C171.437 36.4283 171.529 34.6672 172.086 32.8858C172.644 31.1043 173.57 29.6141 174.864 28.4153C176.164 27.1986 177.666 26.3974 179.371 26.0116C181.1 25.6136 182.846 25.6905 184.609 26.2424C185.981 26.6716 187.18 27.3402 188.207 28.2481C189.239 29.1383 190.029 30.207 190.577 31.4544C191.149 32.6895 191.439 34.0126 191.448 35.4234L188.482 34.4953C188.303 33.1289 187.812 31.9484 187.008 30.9536C186.228 29.9467 185.161 29.2314 183.807 28.8078C182.684 28.4566 181.564 28.3799 180.446 28.5777C179.346 28.7811 178.345 29.2306 177.442 29.9262C176.546 30.604 175.836 31.4673 175.312 32.5161L183.462 35.0664L182.676 37.5783L174.526 35.028C174.358 36.1883 174.447 37.3114 174.792 38.3972C175.142 39.4652 175.711 40.3964 176.5 41.1906C177.305 41.9905 178.27 42.566 179.392 42.9172ZM205.192 56.7181L202.686 55.4694L210.228 40.3321L202.008 36.2366L199.91 40.447C198.67 42.9364 197.545 44.8998 196.537 46.3371C195.538 47.7577 194.433 48.7192 193.223 49.2218C192.03 49.7328 190.682 49.6136 189.178 48.8644C188.894 48.7229 188.468 48.4689 187.9 48.1024L189.098 45.6965C189.566 46.0131 189.901 46.2213 190.101 46.3212C190.886 46.7124 191.596 46.7949 192.23 46.5686C192.864 46.3423 193.598 45.6442 194.431 44.4743C195.264 43.3044 196.313 41.4496 197.579 38.9101L200.725 32.5945L213.933 39.1749L205.192 56.7181ZM223.101 54.7965C224.171 55.5464 224.944 56.3956 225.419 57.3439C225.92 58.2878 226.117 59.2582 226.011 60.2552C225.931 61.2476 225.575 62.1948 224.943 63.0967C224.311 63.9986 223.537 64.6641 222.621 65.0933C221.73 65.518 220.751 65.6635 219.682 65.5298C218.639 65.3916 217.583 64.9476 216.513 64.1977L209.496 59.2804L220.745 43.2296L223.038 44.8366L218.378 51.4862L223.101 54.7965ZM217.954 61.9941C218.871 62.6369 219.717 62.9103 220.491 62.8144C221.275 62.7032 221.962 62.2272 222.552 61.3864C223.141 60.5457 223.348 59.7452 223.174 58.9851C223.001 58.225 222.455 57.5235 221.538 56.8808L216.883 53.6186L213.3 58.732L217.954 61.9941ZM239.801 81.1993L235.05 86.1873L233.104 84.3336L236 81.2921L224.159 70.0153L237.676 55.8217L239.703 57.7527L228.04 69.9997L236.151 77.7236L247.814 65.4766L249.842 67.4076L238.178 79.6546L239.801 81.1993ZM255.071 77.3317L250.465 80.941L256.336 88.4346L254.265 90.058L248.393 82.5644L243.787 86.1737L250.176 94.3285L248.104 95.9518L239.988 85.593L255.416 73.5044L263.533 83.8632L261.461 85.4865L255.071 77.3317ZM265.281 105.033C265.325 106.067 265.135 106.979 264.711 107.769C264.303 108.549 263.681 109.185 262.844 109.676C261.926 110.215 260.977 110.479 259.998 110.47C259.044 110.467 258.117 110.177 257.216 109.602C256.316 109.026 255.53 108.167 254.86 107.024L250.411 99.4409L267.316 89.5223L271.751 97.0813C272.393 98.1761 272.744 99.236 272.805 100.261C272.865 101.286 272.667 102.203 272.211 103.012C271.764 103.836 271.106 104.504 270.237 105.014C269.432 105.486 268.612 105.73 267.776 105.744C266.94 105.758 266.108 105.521 265.281 105.033ZM264.29 101.296C264.857 102.262 265.507 102.855 266.241 103.073C267.001 103.298 267.816 103.156 268.685 102.646C270.343 101.673 270.601 100.212 269.458 98.2641L266.511 93.2409L261.343 96.2732L264.29 101.296ZM257.011 105.6C257.596 106.598 258.266 107.222 259.019 107.473C259.772 107.724 260.583 107.594 261.453 107.084C262.29 106.593 262.767 105.967 262.883 105.206C263.015 104.436 262.789 103.551 262.203 102.553L259.242 97.5059L254.049 100.552L257.011 105.6Z" fill="white" fill-opacity="0.8"/>
</svg>
